<?xml version="1.0" encoding="UTF-8"?>
<svg version="1.1" xmlns="http://www.w3.org/2000/svg" width="444" height="393" viewBox="98 63 248 277">
<defs>
<mask id="p-hole">
<rect width="444" height="393" fill="white"/>
<path d="M0 0 C3.44551973 36.92006914 3.44551973 36.92006914 -1.74023438 46.07080078 C-6.51892256 50.65297633 -12.44276353 52.63931787 -18.62695312 54.71533203 C-24.25023972 56.85703253 -29.27073628 60.03588703 -34.39727783 63.14660645 C-37.13977939 64.7988699 -39.91744688 66.38860537 -42.6953125 67.98046875 C-43.62359863 68.51567139 -44.55188477 69.05087402 -45.50830078 69.60229492 C-47.64692842 70.80194642 -49.80316134 71.91288603 -52 73 C-55.44551973 36.07993086 -55.44551973 36.07993086 -50.25976562 26.92919922 C-45.48249576 22.34838366 -39.55984284 20.36039502 -33.37744141 18.28466797 C-27.73121521 16.13702866 -22.70320658 12.97073878 -17.54779053 9.85339355 C-14.79164335 8.20015118 -11.99759236 6.61377125 -9.20703125 5.01953125 C-0.45175373 0 -0.45175373 0 0 0 Z " fill="black" transform="translate(183,115)"/>
</mask>
</defs>
<path mask="url(#p-hole)" d="M207.546875 65.38671875 C206.6293042 65.9060498 205.7117334 66.42538086 204.76635742 66.96044922 C203.77095947 67.53037598 202.77556152 68.10030273 201.75 68.6875 C200.71657471 69.27547363 199.68314941 69.86344727 198.6184082 70.46923828 C190.86200204 74.89725434 183.16262591 79.41770389 175.48535156 83.98120117 C168.35756586 88.21403456 161.18666625 92.36803692 154 96.5 C143.99321835 102.25604144 134.03267759 108.08446775 124.10546875 113.9765625 C120.72028062 115.98541202 117.32734539 117.97994488 113.92578125 119.9609375 C113.13437744 120.42266357 112.34297363 120.88438965 111.52758789 121.36010742 C110.05296102 122.21952925 108.57697075 123.07661772 107.09936523 123.9309082 C104.47362163 125.46354653 102.15981846 126.84018154 100 129 C99.6750272 131.52397837 99.6750272 131.52397837 99.69892883 134.51507568 C99.68317307 135.68713562 99.6674173 136.85919556 99.65118408 138.06677246 C99.64423523 139.35925903 99.63728638 140.65174561 99.63012695 141.98339844 C99.61596246 143.35325892 99.60104679 144.72311181 99.58543396 146.09295654 C99.53815291 150.59836511 99.51250063 155.10379296 99.48828125 159.609375 C99.47887447 161.16011864 99.46938005 162.71086174 99.45979881 164.26160431 C99.42129684 170.71257367 99.38808473 177.16352986 99.36942768 183.61458969 C99.34262286 192.86080146 99.2850888 202.10561334 99.18366271 211.35131812 C99.11479245 217.85161594 99.08046211 224.35154174 99.07186288 230.85219598 C99.06585885 234.73518187 99.04488968 238.61672853 98.98729897 242.49932098 C98.93390815 246.15414104 98.92339559 249.80661922 98.94544411 253.46173859 C98.9465008 255.43841145 98.90295251 257.41495131 98.85800171 259.39111328 C98.79721972 265.79144093 98.79721972 265.79144093 101.92403221 271.07624054 C104.22562476 272.63888855 106.47580301 273.83896422 109 275 C110.43067338 275.81737726 111.85622304 276.64387807 113.2734375 277.484375 C114.63854202 278.24334203 116.00571768 278.99859651 117.375 279.75 C124.68581081 283.79054054 124.68581081 283.79054054 128 286 C128.99 286 129.98 286 131 286 C131 264.88 131 243.76 131 222 C133.97 221.01 133.97 221.01 137 220 C139.04744984 218.84049292 141.06087706 217.61956094 143.04296875 216.3515625 C144.19082044 215.62752615 145.33977963 214.9052431 146.48974609 214.18457031 C147.07222107 213.81916138 147.65469604 213.45375244 148.25482178 213.07727051 C153.18756572 210.03236684 158.26899999 207.23080653 163.3125 204.375 C165.76786846 202.97951566 168.22199782 201.58186299 170.67578125 200.18359375 C171.28849884 199.83456497 171.90121643 199.48553619 172.53250122 199.12593079 C185.90009945 191.54967168 185.90009945 191.54967168 199.06016541 183.62478638 C202 182 202 182 205.11480713 181.04321289 C209.12622166 179.55638173 211.20070092 178.27684364 214 175 C216.3369408 166.98338722 215.38769978 158.0620422 215.171875 149.81640625 C215.14948418 147.31538464 215.13240703 144.81431028 215.12042236 142.31321716 C215.07934652 136.41185199 214.98487282 130.51325065 214.86422849 124.61301607 C214.71661673 117.23272412 214.65242279 109.85209452 214.5859375 102.47070312 C214.45736861 89.31243956 214.25497271 76.15639018 214 63 C211.29453034 63 209.90064189 64.04960563 207.546875 65.38671875 Z M230 63 C230.01881289 63.60977471 230.03762577 64.21954943 230.05700874 64.84780216 C230.50761108 79.74807238 230.81144266 94.64605475 230.95596504 109.55214024 C231.02933715 116.76210812 231.15062559 123.96506422 231.38867188 131.17163086 C231.59627951 137.46051475 231.70997201 143.7432638 231.71533382 150.035685 C231.72134524 153.36836213 231.78502645 156.67420304 231.9341774 160.00534248 C232.65132865 176.82735272 232.65132865 176.82735272 229 184 C222.61292433 190.45842496 214.41470118 194.0685075 206.16967392 197.59506035 C201.69220472 199.5796727 197.55642627 202.02689767 193.375 204.5625 C191.87142903 205.43771481 190.36640262 206.31043818 188.859375 207.1796875 C187.23954738 208.11972972 185.61975844 209.05983859 184 210 C183.03255859 210.56106445 182.06511719 211.12212891 181.06835938 211.70019531 C177.91944178 213.52735721 174.77205399 215.35713043 171.625 217.1875 C170.66255371 217.74574463 169.70010742 218.30398926 168.70849609 218.87915039 C166.85298464 219.95976145 165.00620581 221.05556095 163.1701355 222.16888428 C160 224 160 224 156.64056396 225.57536316 C149.82539022 228.9350856 149.82539022 228.9350856 145.79904175 235.14476013 C145.34608238 238.98713765 145.29466229 242.71418589 145.4140625 246.5703125 C145.41546615 247.97940309 145.41240777 249.38850446 145.40512085 250.7975769 C145.40400987 253.73968661 145.44746608 256.67660946 145.52490234 259.61767578 C145.62157743 263.3767867 145.62021083 267.12805717 145.58725929 270.88801765 C145.5702321 273.79357143 145.59803073 276.69734582 145.63990402 279.60259628 C145.65589159 280.98751115 145.65979906 282.37262298 145.65108109 283.75760269 C145.44608676 291.5198564 145.44608676 291.5198564 148.89622498 298.1010437 C151.19992161 299.66395986 153.46531114 300.8571164 156 302 C156.97815674 302.59538574 157.95631348 303.19077148 158.96411133 303.80419922 C159.8280249 304.29936035 160.69193848 304.79452148 161.58203125 305.3046875 C163.0832251 306.16803711 163.0832251 306.16803711 164.61474609 307.04882812 C166.19763428 307.9527832 166.19763428 307.9527832 167.8125 308.875 C168.92963379 309.51630859 170.04676758 310.15761719 171.19775391 310.81835938 C174.79590685 312.88345523 178.39774166 314.94207629 182 317 C183.24887548 317.71384128 184.49773609 318.42770861 185.74658203 319.14160156 C193.02553325 323.3020298 193.02553325 323.3020298 200.30786133 327.45654297 C201.39993896 328.07932129 202.4920166 328.70209961 203.6171875 329.34375 C205.20817261 330.23924561 205.20817261 330.23924561 206.83129883 331.15283203 C209.00180084 332.41810811 211.13665571 333.74599728 213.23706055 335.12451172 C219.05321972 339.16911508 219.05321972 339.16911508 225.78515625 339.3203125 C226.86667969 338.59585937 227.94820313 337.87140625 229.0625 337.125 C230.33719043 336.32283855 231.61193263 335.52075936 232.88671875 334.71875 C233.54978027 334.2753125 234.2128418 333.831875 234.89599609 333.375 C237.84336294 331.44884891 240.89674365 329.73214533 243.95898438 327.99658203 C251.39815368 323.77333495 258.74543382 319.38680949 266.11303711 315.0402832 C275.89286402 309.28148473 285.73910243 303.63676651 295.57421875 297.97314453 C301.19681556 294.73470187 306.81714673 291.49233425 312.4375 288.25 C313.41710693 287.68514893 314.39671387 287.12029785 315.40600586 286.53833008 C317.42359964 285.37462119 319.42737974 284.18670272 321.41821289 282.9777832 C324.18162532 281.36274292 327.00607621 280.15323905 329.97045898 278.94995117 C339.17750617 275.12132848 339.17750617 275.12132848 344.9803772 267.50457764 C346.37162724 260.29480652 345.73297377 253.08349745 345.1875 245.8125 C345.09207771 243.5986704 345.0054054 241.38444533 344.92773438 239.16992188 C344.73539684 233.76220016 344.36519921 228.4096468 344 223 C334.1 223 324.2 223 314 223 C314.37125 227.475625 314.7425 231.95125 315.125 236.5625 C315.2019942 243.14605143 315.19044797 249.40588307 310.78759766 254.62011719 C304.66001285 259.33364396 297.62413507 262.35738009 290.55810547 265.39794922 C285.11630871 267.84813931 280.09740912 270.91142628 275 274 C273.03606227 275.15220949 271.06989053 276.30061914 269.1015625 277.4453125 C267.61897949 278.3101123 267.61897949 278.3101123 266.10644531 279.19238281 C259.43409148 283.07497538 252.75110277 286.93938098 246.05395508 290.77905273 C241.47990197 293.40212433 236.91605383 296.0283935 232.42578125 298.79296875 C231.77754395 299.18564941 231.12930664 299.57833008 230.46142578 299.98291016 C228.84521976 300.96651365 227.24030871 301.96861593 225.63671875 302.97265625 C223 304 223 304 220.6472168 303.234375 C218.02883089 302.0134436 215.52148786 300.70111834 213.0078125 299.27734375 C212.06188232 298.74262451 211.11595215 298.20790527 210.14135742 297.65698242 C209.14595947 297.08955322 208.15056152 296.52212402 207.125 295.9375 C206.10446533 295.35911377 205.08393066 294.78072754 204.0324707 294.18481445 C197.40193498 290.4127276 190.82177494 286.56751977 184.34228516 282.54077148 C181.39114623 280.59556641 181.39114623 280.59556641 178 280 C177.8201466 275.72953637 177.72799655 271.46830565 177.71313477 267.19482422 C177.6962068 265.74546769 177.65627748 264.2961758 177.59204102 262.84814453 C177.38432284 257.94734652 177.50726439 253.70521419 179 249 C182.83057398 245.21477529 187.13440198 243.21105382 192 241 C193.85284282 239.96235757 195.69618657 238.90748078 197.52734375 237.83203125 C199.32967774 236.82363929 201.13308808 235.817169 202.9375 234.8125 C208.82817035 231.5074827 214.70885163 228.1898292 220.53125 224.765625 C221.79637169 224.02186363 221.79637169 224.02186363 223.08705139 223.26307678 C224.88560228 222.19006186 226.67298245 221.0978813 228.44358826 219.97935486 C233.28164896 216.96764209 237.83803161 214.60424454 243.26000977 212.8215332 C250.39901644 210.17848962 256.44028644 207.28919052 261 201 C265.59324715 188.68986678 263.65405143 173.49037815 263.11151123 160.63592529 C262.92509108 155.60237721 262.87690893 150.56760682 262.81640625 145.53125 C262.67803243 135.68155513 262.3881392 125.84279981 262 116 C265.66486385 118.06498736 269.32861771 120.13193655 272.9921875 122.19921875 C274.02110107 122.77893433 275.05001465 123.3586499 276.11010742 123.95593262 C289.80638046 131.68769965 289.80638046 131.68769965 294.87588501 134.93353271 C297.8122545 136.79957968 300.46557755 138.16179303 303.765625 139.30859375 C310.94622096 142.17616941 310.94622096 142.17616941 313 146 C314.94713115 155.57278343 314.21686688 165.28436394 314 175 C323.9 175 333.8 175 344 175 C347.53772808 149.17910764 347.53772808 149.17910764 342.03125 124.62548828 C336.71814927 119.64753106 330.21850654 117.43473298 323.38671875 115.21826172 C317.82366103 113.21713297 313.00903416 110.09745195 308 107 C306.00333852 105.82762889 304.00332031 104.66095601 302 103.5 C296 100 296 100 290 96.5 C289.0092749 95.92209717 288.0185498 95.34419434 286.99780273 94.7487793 C285.00505606 93.58630316 283.01237986 92.42370621 281.01977539 91.26098633 C275.90938138 88.27919161 270.79764452 85.29973805 265.68359375 82.32421875 C263.60155209 81.11199705 261.51952068 79.89975773 259.4375 78.6875 C258.43952393 78.10726074 257.44154785 77.52702148 256.41333008 76.92919922 C252.00803057 74.36247057 247.61520754 71.78134614 243.265625 69.12109375 C242.56638916 68.69417236 241.86715332 68.26725098 241.14672852 67.82739258 C239.88560805 67.05343391 238.62796936 66.27375794 237.37475586 65.48706055 C234.65792915 63.81743238 233.26012088 63 230 63 Z" fill="#FFFFFF" transform="translate(0,0)"/>
</svg>
